<svg xmlns="http://www.w3.org/2000/svg" id="Camada_2" data-name="Camada 2" viewBox="0 0 7737.88 1679.47"><defs><style>      .cls-1 {        fill: #e75857;      }      .cls-1, .cls-2 {        stroke-width: 0px;      }      .cls-2 {        fill: #003b45;      }    </style></defs><g id="Camada_1-2" data-name="Camada 1"><g><g><path class="cls-2" d="m5660.24,516.68l-176.57,410.26h355.75l-176.57-410.26h-2.6Zm492.07,713.11h-181.77l-67.52-156.6h-482.98l-67.52,156.6h-181.77l410.28-905.94h160.99l410.28,905.94Zm369.58-113.53c123.61,0,220.64-80.48,220.64-180.76v-87.08c0-97.64-98.36-178.12-217.98-178.12-140.89,0-232.6,88.4-232.6,220.34,0,141.18,87.72,225.62,229.94,225.62Zm18.61,440.68c-164.81,0-292.41-62.01-368.17-179.44l124.94-92.36c66.46,95,131.58,130.62,243.23,130.62,119.62,0,207.34-77.84,207.34-183.4v-65.97h-2.66c-50.51,60.69-136.9,93.68-239.25,93.68-219.31,0-378.8-154.37-378.8-369.43s158.17-365.47,370.83-365.47c103.67,0,192.73,32.98,245.89,91.04h2.66v-75.21h160.82v691.37c0,189.99-151.52,324.57-366.84,324.57Zm608.5-732.04h426.7c-9.3-96.44-95.71-165.51-211.35-165.51s-204.71,69.07-215.35,165.51Zm221.99,430.05c-240.6,0-388.15-143.35-388.15-362.29s158.18-367.5,378.85-367.5,376.19,160.29,376.19,368.8v48.22h-591.53c5.32,108.17,94.38,178.54,223.32,178.54,95.71,0,164.83-37.79,229.97-117.29l110.33,96.44c-78.43,99.04-188.76,155.08-338.97,155.08Z"></path><path class="cls-2" d="m2469.88,1235.42h-168.25V323.85h183.9l470.83,675.87h2.61V323.85h168.25v911.58h-183.9l-470.83-677.17h-2.61v677.17Zm889.89-410.21h418.66c-9.13-96.37-93.91-165.39-207.37-165.39s-200.85,69.02-211.29,165.39Zm217.81,429.74c-236.07,0-380.84-143.25-380.84-362.03s155.2-367.24,371.71-367.24,369.1,160.18,369.1,368.54v48.18h-580.38c5.22,108.09,92.6,178.41,219.11,178.41,93.9,0,161.72-37.77,225.63-117.2l108.25,96.37c-76.95,98.97-185.2,154.97-332.58,154.97Zm1118.52-714.34h92.47v-166.44h163.62v166.44h430.09l-62.61,137.83h-367.48v344.59c0,44.21,15.84,58.51,73.9,58.51h110.37l-65.1,148.24h-58.47c-160.99,0-224.32-61.12-224.32-198.95v-352.39h-211.44l-173.97,201.55,300.86,349.79h-203.21l-203.21-248.36h-2.64l-203.21,248.36h-204.53l302.18-349.79-292.94-339.39h204.53l193.97,239.26h2.64l156.2-192.67c23.89-29.47,59.81-46.59,97.75-46.59h144.55Z"></path></g><path class="cls-1" d="m1477.39,12.87c-117.19-36.56-242.86,6.52-312.96,107.25h0s-.39.56-.39.56c-.02.03-.05.06-.07.1h0s-251.71,367.48-251.71,367.48l173.01,242.11,308.6-449.71-.13,1118.2L509.78,121.45C439.77,20.28,313.86-23.06,196.37,13.61,78.91,50.27,0,157.58,0,280.61v1118.81c0,123.04,78.92,230.34,196.4,267.01,117.08,36.54,242.55-6.41,312.7-106.88l.06.04,259.47-378.7-173-242.11-315.72,460.03.13-1117.47,883.97,1277.39c53.43,77.21,139.42,120.74,229.36,120.74,27.91,0,56.23-4.19,84.05-12.88,117.45-36.67,196.37-143.97,196.37-267V279.88c0-123.04-78.92-230.34-196.4-267.01ZM278.5,1400.85l-.07-.05c.07-.06.15-.12.23-.18l-.16.23Z"></path></g></g></svg>